<?xml version="1.0" encoding="UTF-8"?>
<svg width="200" height="200" viewBox="0 0 200 200" fill="none" xmlns="http://www.w3.org/2000/svg">
  <!-- Head -->
  <circle cx="100" cy="70" r="40" fill="#FFB5A7"/>
  
  <!-- Hair -->
  <path d="M60 70 Q100 20 140 70" fill="#4A4A4A"/>
  <path d="M60 70 Q80 60 85 75" fill="#4A4A4A"/>
  <path d="M140 70 Q120 60 115 75" fill="#4A4A4A"/>
  
  <!-- Face -->
  <circle cx="85" cy="65" r="5" fill="#4A4A4A"/>
  <circle cx="115" cy="65" r="5" fill="#4A4A4A"/>
  <path d="M90 80 Q100 85 110 80" stroke="#4A4A4A" stroke-width="2"/>
  
  <!-- Body -->
  <rect x="80" y="110" width="40" height="60" fill="#90BE6D"/>
  <path d="M80 110 Q100 120 120 110" fill="#90BE6D"/>
  
  <!-- Arms -->
  <rect x="65" y="120" width="15" height="40" rx="5" fill="#FFB5A7"/>
  <rect x="120" y="120" width="15" height="40" rx="5" fill="#FFB5A7"/>
  
  <!-- Book -->
  <rect x="75" y="165" width="50" height="10" fill="#4CC9F0"/>
  <path d="M75 165 L125 165 L125 160 L75 160 Z" fill="#F77F00"/>
</svg>
